<mxfile host="Electron" modified="2024-02-26T16:26:57.723Z" agent="Mozilla/5.0 (Windows NT 10.0; Win64; x64) AppleWebKit/537.36 (KHTML, like Gecko) draw.io/22.1.18 Chrome/120.0.6099.199 Electron/28.1.2 Safari/537.36" etag="3VFYRcnnByeQbdab-q5q" version="22.1.18" type="device">
  <diagram id="C5RBs43oDa-KdzZeNtuy" name="Page-1">
    <mxGraphModel dx="2495" dy="974" grid="1" gridSize="10" guides="1" tooltips="1" connect="1" arrows="1" fold="1" page="1" pageScale="1" pageWidth="827" pageHeight="1169" math="0" shadow="0">
      <root>
        <mxCell id="WIyWlLk6GJQsqaUBKTNV-0" />
        <mxCell id="WIyWlLk6GJQsqaUBKTNV-1" parent="WIyWlLk6GJQsqaUBKTNV-0" />
        <mxCell id="WIyWlLk6GJQsqaUBKTNV-3" value="Start" style="rounded=1;whiteSpace=wrap;html=1;fontSize=12;glass=0;strokeWidth=1;shadow=0;" parent="WIyWlLk6GJQsqaUBKTNV-1" vertex="1">
          <mxGeometry x="-715" y="20" width="140" height="35" as="geometry" />
        </mxCell>
        <mxCell id="fb3xNtcODuzkv7CMy7z3-26" value="&lt;div style=&quot;border-color: var(--border-color); font-size: 10px;&quot;&gt;&lt;div style=&quot;border-color: var(--border-color);&quot;&gt;Start&lt;/div&gt;&lt;div style=&quot;border-color: var(--border-color);&quot;&gt;1. Read data into array\&lt;/div&gt;&lt;div style=&quot;border-color: var(--border-color);&quot;&gt;2. Print welcome message&lt;/div&gt;&lt;div style=&quot;border-color: var(--border-color);&quot;&gt;3. get initilal password value&lt;/div&gt;&lt;div style=&quot;border-color: var(--border-color);&quot;&gt;4. start do loop that checks password aginst list&lt;/div&gt;&lt;div style=&quot;border-color: var(--border-color);&quot;&gt;5. keep looping &lt;span style=&quot;background-color: initial;&quot;&gt;user tuypes in a password that does match&lt;/span&gt;&lt;/div&gt;&lt;div style=&quot;border-color: var(--border-color);&quot;&gt;&lt;span style=&quot;background-color: initial;&quot;&gt;6. if entery does not match- exit do&lt;/span&gt;&lt;/div&gt;&lt;div style=&quot;border-color: var(--border-color);&quot;&gt;&lt;span style=&quot;background-color: initial;&quot;&gt;7. print exit message.&lt;/span&gt;&lt;/div&gt;&lt;/div&gt;" style="rounded=0;whiteSpace=wrap;html=1;align=left;fontSize=10;" parent="WIyWlLk6GJQsqaUBKTNV-1" vertex="1">
          <mxGeometry x="-370" y="110" width="297.25" height="180" as="geometry" />
        </mxCell>
        <mxCell id="fb3xNtcODuzkv7CMy7z3-29" value="CIS 129&lt;br style=&quot;border-color: var(--border-color);&quot;&gt;Thomas Burns&lt;br&gt;M6 Arrays" style="rounded=0;whiteSpace=wrap;html=1;" parent="WIyWlLk6GJQsqaUBKTNV-1" vertex="1">
          <mxGeometry x="-296.12" y="20" width="149.5" height="60" as="geometry" />
        </mxCell>
        <mxCell id="WY30ZvE9TRLJRaWXuD3o-1" value="Set arry of 10 passwords" style="rounded=1;whiteSpace=wrap;html=1;" parent="WIyWlLk6GJQsqaUBKTNV-1" vertex="1">
          <mxGeometry x="-738.75" y="110" width="199" height="80" as="geometry" />
        </mxCell>
        <mxCell id="WY30ZvE9TRLJRaWXuD3o-2" value="Print Welcome and Tell Exit Key" style="shape=document;whiteSpace=wrap;html=1;boundedLbl=1;" parent="WIyWlLk6GJQsqaUBKTNV-1" vertex="1">
          <mxGeometry x="-690.75" y="210" width="103" height="60" as="geometry" />
        </mxCell>
        <mxCell id="WY30ZvE9TRLJRaWXuD3o-9" value="" style="endArrow=classic;html=1;rounded=0;entryX=0.5;entryY=0;entryDx=0;entryDy=0;exitX=0.5;exitY=1;exitDx=0;exitDy=0;" parent="WIyWlLk6GJQsqaUBKTNV-1" source="WY30ZvE9TRLJRaWXuD3o-1" target="WY30ZvE9TRLJRaWXuD3o-2" edge="1">
          <mxGeometry width="50" height="50" relative="1" as="geometry">
            <mxPoint x="-824.25" y="320" as="sourcePoint" />
            <mxPoint x="-774.25" y="270" as="targetPoint" />
          </mxGeometry>
        </mxCell>
        <mxCell id="WY30ZvE9TRLJRaWXuD3o-10" value="" style="endArrow=classic;html=1;rounded=0;exitX=0.5;exitY=1;exitDx=0;exitDy=0;entryX=0.468;entryY=0.038;entryDx=0;entryDy=0;entryPerimeter=0;" parent="WIyWlLk6GJQsqaUBKTNV-1" source="WIyWlLk6GJQsqaUBKTNV-3" target="WY30ZvE9TRLJRaWXuD3o-1" edge="1">
          <mxGeometry width="50" height="50" relative="1" as="geometry">
            <mxPoint x="-652.25" y="157" as="sourcePoint" />
            <mxPoint x="-384.25" y="330" as="targetPoint" />
          </mxGeometry>
        </mxCell>
        <mxCell id="mKXwFcmd20PQZVdsAEzj-0" value="Get user password" style="shape=parallelogram;perimeter=parallelogramPerimeter;whiteSpace=wrap;html=1;fixedSize=1;" parent="WIyWlLk6GJQsqaUBKTNV-1" vertex="1">
          <mxGeometry x="-709.5" y="300" width="140.5" height="60" as="geometry" />
        </mxCell>
        <mxCell id="mKXwFcmd20PQZVdsAEzj-1" value="Does password match list?" style="rhombus;whiteSpace=wrap;html=1;" parent="WIyWlLk6GJQsqaUBKTNV-1" vertex="1">
          <mxGeometry x="-695.5" y="410" width="112.5" height="110" as="geometry" />
        </mxCell>
        <mxCell id="mKXwFcmd20PQZVdsAEzj-2" value="Print&amp;nbsp;&quot;Your password is in the check list, please try a new one:&quot;" style="shape=document;whiteSpace=wrap;html=1;boundedLbl=1;" parent="WIyWlLk6GJQsqaUBKTNV-1" vertex="1">
          <mxGeometry x="-710.5" y="677.5" width="150" height="97.5" as="geometry" />
        </mxCell>
        <mxCell id="mKXwFcmd20PQZVdsAEzj-14" value="" style="endArrow=classic;html=1;rounded=0;exitX=1;exitY=0.5;exitDx=0;exitDy=0;entryX=0;entryY=0.5;entryDx=0;entryDy=0;" parent="WIyWlLk6GJQsqaUBKTNV-1" source="mKXwFcmd20PQZVdsAEzj-1" target="b4VqzqOh8Pu9dyMQso2P-4" edge="1">
          <mxGeometry width="50" height="50" relative="1" as="geometry">
            <mxPoint x="-445.5" y="596.5" as="sourcePoint" />
            <mxPoint x="-440.5" y="462.4999999999998" as="targetPoint" />
          </mxGeometry>
        </mxCell>
        <mxCell id="mKXwFcmd20PQZVdsAEzj-15" value="No" style="edgeLabel;html=1;align=center;verticalAlign=middle;resizable=0;points=[];" parent="mKXwFcmd20PQZVdsAEzj-14" vertex="1" connectable="0">
          <mxGeometry x="-0.4133" y="1" relative="1" as="geometry">
            <mxPoint as="offset" />
          </mxGeometry>
        </mxCell>
        <mxCell id="b4VqzqOh8Pu9dyMQso2P-0" value="Print&amp;nbsp;&quot;Your password was not in the list&quot;" style="shape=document;whiteSpace=wrap;html=1;boundedLbl=1;" vertex="1" parent="WIyWlLk6GJQsqaUBKTNV-1">
          <mxGeometry x="-284.25" y="410" width="103" height="114" as="geometry" />
        </mxCell>
        <mxCell id="b4VqzqOh8Pu9dyMQso2P-4" value="Exit do loop" style="whiteSpace=wrap;html=1;aspect=fixed;" vertex="1" parent="WIyWlLk6GJQsqaUBKTNV-1">
          <mxGeometry x="-425.5" y="423" width="84" height="84" as="geometry" />
        </mxCell>
        <mxCell id="b4VqzqOh8Pu9dyMQso2P-5" value="" style="endArrow=classic;html=1;rounded=0;exitX=0;exitY=0.5;exitDx=0;exitDy=0;entryX=0;entryY=0.5;entryDx=0;entryDy=0;" edge="1" parent="WIyWlLk6GJQsqaUBKTNV-1" source="mKXwFcmd20PQZVdsAEzj-2" target="mKXwFcmd20PQZVdsAEzj-1">
          <mxGeometry width="50" height="50" relative="1" as="geometry">
            <mxPoint x="-570.5" y="385" as="sourcePoint" />
            <mxPoint x="-520.5" y="335" as="targetPoint" />
            <Array as="points">
              <mxPoint x="-750.5" y="726" />
              <mxPoint x="-750.5" y="465" />
            </Array>
          </mxGeometry>
        </mxCell>
        <mxCell id="b4VqzqOh8Pu9dyMQso2P-6" value="Input for Password check" style="edgeLabel;html=1;align=center;verticalAlign=middle;resizable=0;points=[];" vertex="1" connectable="0" parent="b4VqzqOh8Pu9dyMQso2P-5">
          <mxGeometry x="-0.1623" y="-1" relative="1" as="geometry">
            <mxPoint as="offset" />
          </mxGeometry>
        </mxCell>
        <mxCell id="b4VqzqOh8Pu9dyMQso2P-7" value="" style="endArrow=classic;html=1;rounded=0;exitX=0.5;exitY=1;exitDx=0;exitDy=0;" edge="1" parent="WIyWlLk6GJQsqaUBKTNV-1" source="mKXwFcmd20PQZVdsAEzj-1" target="mKXwFcmd20PQZVdsAEzj-2">
          <mxGeometry width="50" height="50" relative="1" as="geometry">
            <mxPoint x="-360.5" y="835" as="sourcePoint" />
            <mxPoint x="-310.5" y="785" as="targetPoint" />
          </mxGeometry>
        </mxCell>
        <mxCell id="b4VqzqOh8Pu9dyMQso2P-8" value="Yes" style="edgeLabel;html=1;align=center;verticalAlign=middle;resizable=0;points=[];" vertex="1" connectable="0" parent="b4VqzqOh8Pu9dyMQso2P-7">
          <mxGeometry x="0.4842" relative="1" as="geometry">
            <mxPoint as="offset" />
          </mxGeometry>
        </mxCell>
        <mxCell id="b4VqzqOh8Pu9dyMQso2P-11" value="" style="endArrow=classic;html=1;rounded=0;exitX=1;exitY=0.5;exitDx=0;exitDy=0;entryX=0;entryY=0.5;entryDx=0;entryDy=0;" edge="1" parent="WIyWlLk6GJQsqaUBKTNV-1" source="b4VqzqOh8Pu9dyMQso2P-4" target="b4VqzqOh8Pu9dyMQso2P-0">
          <mxGeometry width="50" height="50" relative="1" as="geometry">
            <mxPoint x="-290.5" y="755" as="sourcePoint" />
            <mxPoint x="-240.5" y="705" as="targetPoint" />
          </mxGeometry>
        </mxCell>
        <mxCell id="b4VqzqOh8Pu9dyMQso2P-12" value="" style="endArrow=classic;html=1;rounded=0;exitX=0.465;exitY=0.855;exitDx=0;exitDy=0;exitPerimeter=0;entryX=0.5;entryY=0;entryDx=0;entryDy=0;" edge="1" parent="WIyWlLk6GJQsqaUBKTNV-1" source="WY30ZvE9TRLJRaWXuD3o-2" target="mKXwFcmd20PQZVdsAEzj-0">
          <mxGeometry width="50" height="50" relative="1" as="geometry">
            <mxPoint x="-437.25" y="370" as="sourcePoint" />
            <mxPoint x="-387.25" y="320" as="targetPoint" />
          </mxGeometry>
        </mxCell>
        <mxCell id="b4VqzqOh8Pu9dyMQso2P-13" value="" style="endArrow=classic;html=1;rounded=0;exitX=0.5;exitY=1;exitDx=0;exitDy=0;entryX=0.5;entryY=0;entryDx=0;entryDy=0;" edge="1" parent="WIyWlLk6GJQsqaUBKTNV-1" source="mKXwFcmd20PQZVdsAEzj-0" target="mKXwFcmd20PQZVdsAEzj-1">
          <mxGeometry width="50" height="50" relative="1" as="geometry">
            <mxPoint x="-530" y="360" as="sourcePoint" />
            <mxPoint x="-480" y="310" as="targetPoint" />
          </mxGeometry>
        </mxCell>
        <mxCell id="b4VqzqOh8Pu9dyMQso2P-15" value="Exit" style="rounded=1;whiteSpace=wrap;html=1;fontSize=12;glass=0;strokeWidth=1;shadow=0;" vertex="1" parent="WIyWlLk6GJQsqaUBKTNV-1">
          <mxGeometry x="-150" y="448" width="140" height="35" as="geometry" />
        </mxCell>
        <mxCell id="b4VqzqOh8Pu9dyMQso2P-16" value="" style="endArrow=classic;html=1;rounded=0;exitX=1;exitY=0.5;exitDx=0;exitDy=0;" edge="1" parent="WIyWlLk6GJQsqaUBKTNV-1" source="b4VqzqOh8Pu9dyMQso2P-0" target="b4VqzqOh8Pu9dyMQso2P-15">
          <mxGeometry width="50" height="50" relative="1" as="geometry">
            <mxPoint x="-210" y="690" as="sourcePoint" />
            <mxPoint x="-160" y="640" as="targetPoint" />
          </mxGeometry>
        </mxCell>
      </root>
    </mxGraphModel>
  </diagram>
</mxfile>
